<?xml version="1.0" encoding="UTF-8" standalone="no"?>
<!DOCTYPE svg PUBLIC "-//W3C//DTD SVG 1.1//EN" "http://www.w3.org/Graphics/SVG/1.1/DTD/svg11.dtd">
<svg width="100%" height="100%" viewBox="0 0 512 512" version="1.1" xmlns="http://www.w3.org/2000/svg" xmlns:xlink="http://www.w3.org/1999/xlink" xml:space="preserve" xmlns:serif="http://www.serif.com/" style="fill-rule:evenodd;clip-rule:evenodd;stroke-linejoin:round;stroke-miterlimit:2;">
    <g transform="matrix(1,0,0,1.03859,0,-19.2616)">
        <rect x="30.338" y="35.274" width="442.768" height="463.827" style="fill:rgb(37,37,37);"/>
    </g>
    <g id="baby-solid.svg">
        <g>
            <path d="M512,56.32L512,455.68C512,486.764 486.764,512 455.68,512L56.32,512C25.236,512 0,486.764 0,455.68L0,56.32C0,25.236 25.236,0 56.32,0L455.68,0C486.764,0 512,25.236 512,56.32ZM190.341,95.406C190.341,131.433 219.987,161.078 256.013,161.078C292.04,161.078 321.685,131.433 321.685,95.406C321.685,59.38 292.04,29.734 256.013,29.734C219.987,29.734 190.341,59.38 190.341,95.406ZM287.064,363.805L287.025,363.749L287.025,363.84L287.064,363.805ZM287.064,363.805L310.74,397.679L288.575,419.843C274.346,434.163 274.255,457.24 288.575,471.469C302.895,485.698 325.972,485.698 340.201,471.469L383.982,427.687C396.478,415.192 398.211,395.49 388.086,380.987L342.299,315.498L287.064,363.805ZM169.819,315.498L169.728,315.498L123.94,380.987C113.815,395.49 115.548,415.192 128.135,427.779L171.917,471.56C186.237,485.789 209.313,485.88 223.542,471.56C237.771,457.24 237.771,434.163 223.542,419.934L201.378,397.77L225.093,363.84L169.819,315.498ZM271.8,281.4L249.711,303.489C247.476,305.724 244.453,306.98 241.281,306.98L222.355,306.98L210.241,319.115C208.24,321.116 205.004,321.116 203.024,319.115C201.045,317.114 201.023,313.878 203.024,311.898L215.159,299.763L215.159,281.4L169.363,281.4L169.705,309.575L227.586,359.994L284.441,359.994L342.739,308.384L343.575,281.4L271.8,281.4ZM215.55,277.828C216.082,275.8 217.144,273.935 218.651,272.428L227.869,263.21L240.004,275.345C241.324,276.665 243.495,276.665 244.815,275.345C246.135,274.025 246.135,271.853 244.815,270.534L232.68,258.399L241.494,249.585L253.629,261.72C254.949,263.04 257.12,263.04 258.44,261.72C259.76,260.4 259.76,258.228 258.44,256.909L246.284,244.752L259.292,231.745C259.355,231.809 259.419,231.894 259.504,231.958L290.374,262.827L275.373,277.828L343.575,277.828L343.575,244.718C357.44,238.516 370.665,230.945 383.07,221.916L416.088,197.836C432.324,185.979 435.972,163.085 424.115,146.849C412.257,130.614 389.455,126.965 373.128,138.822L340.109,162.902C315.665,180.688 286.204,190.265 256.013,190.265C225.822,190.265 196.361,180.688 171.917,162.902L138.898,138.914C122.571,127.056 99.769,130.614 87.911,146.94L87.911,146.849C76.054,163.176 79.611,185.979 95.938,197.836L128.956,221.916C141.361,230.945 154.587,238.607 168.451,244.718L168.451,277.828L215.55,277.828ZM295.398,213.096L309.023,226.721C311.024,228.722 311.024,231.958 309.023,233.938C307.022,235.917 303.786,235.939 301.806,233.938L298.613,230.744L290.48,238.855L302.189,250.564C304.19,252.566 304.19,255.801 302.189,257.781C300.188,259.761 296.952,259.783 294.972,257.781L279.644,242.453L264.316,227.146C262.315,225.145 262.315,221.909 264.316,219.929C266.317,217.949 269.553,217.928 271.533,219.929L283.242,231.638L291.374,223.527L288.16,220.334C286.158,218.333 286.158,215.097 288.16,213.117C290.161,211.137 293.397,211.116 295.377,213.117L295.398,213.096Z" style="fill:url(#_Linear1);"/>
        </g>
    </g>
    <defs>
        <linearGradient id="_Linear1" x1="0" y1="0" x2="1" y2="0" gradientUnits="userSpaceOnUse" gradientTransform="matrix(455,463,-463,455,33,24)"><stop offset="0" style="stop-color:rgb(179,70,154);stop-opacity:1"/><stop offset="1" style="stop-color:rgb(81,176,227);stop-opacity:1"/></linearGradient>
    </defs>
</svg>
