<?xml version="1.0" encoding="UTF-8" standalone="no"?>
<!DOCTYPE svg PUBLIC "-//W3C//DTD SVG 1.1//EN" "http://www.w3.org/Graphics/SVG/1.1/DTD/svg11.dtd">
<svg width="100%" height="100%" viewBox="0 0 885 648" version="1.1" xmlns="http://www.w3.org/2000/svg" xmlns:xlink="http://www.w3.org/1999/xlink" xml:space="preserve" xmlns:serif="http://www.serif.com/" style="fill-rule:evenodd;clip-rule:evenodd;stroke-linecap:round;stroke-linejoin:round;stroke-miterlimit:1.5;">
    <g transform="matrix(1,0,0,1,-1.25011e-13,-0.000148144)">
        <g transform="matrix(1,0,0,1,-313.375,-194.722)">
            <path d="M808.896,311.208C808.955,319 812.896,324 820.688,324C868.173,324 1071.11,308 1071,519C1070.89,730 862.333,714 821,713C813.386,712.816 809,718.384 809,726C809,740.864 810,813.504 810,829C810,837.496 812.507,839.806 821,840C864.844,841 1198.56,853.1 1198,515C1197.57,252.167 975.833,185.003 822,197C815.008,197.545 809.025,199.987 809,207C808.896,235.892 808.642,277.399 808.896,311.208Z" style="fill:white;"/>
            <path d="M324,197C343.167,195.167 410.5,195.167 430,197C435.163,197.485 440.759,202.82 441,208C443,251 442,455 442,455L651,455L651,324C651,324 528,325.333 501,324C496.198,323.763 489.49,320.782 489,316C487,296.5 487.167,227 489,207C489.473,201.836 494.818,196.187 500,196C546.167,194.333 719.833,195.667 766,197C770.344,197.125 776.918,199.655 777,204C779,309.5 779.167,724 778,830C777.953,834.268 774.266,839.846 770,840C723.833,841.667 547.833,841.667 501,840C495.796,839.815 489.536,835.179 489,830C487,810.667 486.833,743.5 489,724C489.627,718.358 496.336,713.382 502,713C529.167,711.167 652,713 652,713L651,582L443,582C443,582 444,786 442,829C441.759,834.18 436.167,839.562 431,840C411.333,841.667 343.333,840.5 324,839C319.998,838.69 315.057,835.013 315,831C313.5,725.833 313.5,313.667 315,208C315.067,203.263 319.284,197.451 324,197Z" style="fill:white;stroke:rgb(0,103,221);stroke-width:1px;"/>
        </g>
    </g>
</svg>
